<?xml version="1.0" encoding="UTF-8" standalone="no"?>
<!-- Created with Inkscape (http://www.inkscape.org/) -->

<svg
   xmlns:dc="http://purl.org/dc/elements/1.1/"
   xmlns:cc="http://creativecommons.org/ns#"
   xmlns:rdf="http://www.w3.org/1999/02/22-rdf-syntax-ns#"
   xmlns:svg="http://www.w3.org/2000/svg"
   xmlns="http://www.w3.org/2000/svg"
   xmlns:sodipodi="http://sodipodi.sourceforge.net/DTD/sodipodi-0.dtd"
   xmlns:inkscape="http://www.inkscape.org/namespaces/inkscape"
   version="1.0"
   width="340pt"
   height="225pt"
   viewBox="0 0 340 225"
   id="svg2"
   sodipodi:docname="shark.svg"
   inkscape:version="0.92.1 r15371">
  <metadata
     id="metadata4576">
    <rdf:RDF>
      <cc:Work
         rdf:about="">
        <dc:format>image/svg+xml</dc:format>
        <dc:type
           rdf:resource="http://purl.org/dc/dcmitype/StillImage" />
      </cc:Work>
    </rdf:RDF>
  </metadata>
  <sodipodi:namedview
     pagecolor="#ffffff"
     bordercolor="#666666"
     borderopacity="1"
     objecttolerance="10"
     gridtolerance="10"
     guidetolerance="10"
     inkscape:pageopacity="0"
     inkscape:pageshadow="2"
     inkscape:window-width="1920"
     inkscape:window-height="1016"
     id="namedview4574"
     showgrid="false"
     inkscape:zoom="0.78666667"
     inkscape:cx="226.66667"
     inkscape:cy="150"
     inkscape:window-x="0"
     inkscape:window-y="27"
     inkscape:window-maximized="1"
     inkscape:current-layer="svg2" />
  <defs
     id="defs28" />
  <path
     d="m 106.0792,130.05162 c -3.79754,-0.31569 -7.369264,-2.29988 -11.207648,-6.22613 -0.864344,-0.88413 -1.797632,-1.90971 -1.760552,-1.93466 0.02312,-0.0156 7.67953,-10.4714 7.83596,-10.33065 l 0.78933,0.71025 c 0.75865,0.68264 1.28383,1.20453 2.00945,1.76604 2.15777,1.66974 4.98547,3.20093 8.57926,4.64563 1.42083,0.57118 2.1117,0.82785 5.0679,1.88283 1.43896,0.51352 2.63738,0.94129 2.66314,0.95059 0.0582,0.021 -0.054,0.22439 -0.51694,0.93634 -2.47477,3.80619 -6.24388,6.55202 -10.11591,7.36956 -1.00049,0.21124 -2.40724,0.30808 -3.34399,0.2302 l 0,0 z"
     id="path3651"
     style="fill:#ffffff;fill-opacity:1;stroke:#ffffff;stroke-width:0.80000001;stroke-opacity:1" />
  <path
     d="m 192.5,0 c -14.7,10.8 -24.3,26.8 -31.2,43.3 -3.1,7 -4.2,14.9 -9,21 -8.4,11.8 -22,18 -32.7,27.3 -6.9,5.8 -13.6,12.2 -18.8,19.6 4.9,5.6 12.5,7.8 19.4,10.3 -3,5.3 -8.9,9.5 -15.1,8.5 -5.1,-0.8 -9,-4.6 -12.3,-8.3 -5,6.4 -8.8,13.9 -11.5,21.5 -2.5,9.5 -3.7,20 -10.5,27.6 -8.4,9.3 -20.6,13.4 -32.4,16.6 -9.9,2.4 -20,3.6 -30.1,4.8 -2.710671,0.12079 -7.032014,0.62245 -7.7,1.4 1.195216,-0.0843 1.45253,0.0157 2.1,0.2 6.6,2.1 13.3,4.1 20.3,4.3 15,2.2 30.2,0.4 45.2,-1.9 0.69793,-0.0298 1.2,-0.14897 1.7,0 4,0.8 8.2,1.2 12.1,2.8 6.7,3.1 13.2,6.7 19.7,10.3 12.8,6 26.4,10.5 40.4,12.6 6.5,1.5 13.2,1.6 19.6,3.1 l 27.5,0 c 5.6,-1.3 11.4,-1.5 17.1,-2.7 13.3,-2.5 25.8,-8.3 36.8,-16.2 7.6,-4.1 14.9,-9 23.6,-10.4 3.90236,-0.52331 5.34248,-0.39351 8.5,0.2 7.4,2.2 15.2,2.2 22.8,2.1 14.4,-0.1 29.8192,-0.80412 42,-8.3 0.24375,-0.15 0.52501,-0.48438 0.75938,-0.67813 -0.2875,0.0104 -0.48438,-0.026 -0.75938,-0.0219 0,0 -26.3,-1.9 -38.6,-6.4 -15.4,-5 -29.5,-15.1 -38,-29 -4.7,-7.5 -6.6,-16.3 -9.6,-24.6 -0.58496,-1.59587 -0.81854,-2.6825 -0.3,-4.1 0.77866,-1.9264 2.6,-3.3 4.4,-4.4 1.56348,-0.73146 2.16799,-0.67866 4,-0.4 5.8,1.6 7.8,7.6 11.2,11.8 4.6,5.7 9,11.6 15,16 8.2,7.2 17.4,13.3 27.6,17.1 -3.6,-4.3 -8.4,-7.4 -11.8,-11.9 C 290.2,137.6 279.5,119.4 273.3,99.6 269.4,88.8 268.2,77.4 267,66 c 0.1,-10.6 2.5,-21 4.9,-31.3 -7.1,7.5 -10.9,17.4 -14.1,27.2 -1.2,3.8 -1.8,7.8 -2.1,11.8 0.4,6.8 1.1,13.8 -0.4,20.6 -1,4.5 -2.9,9.8 -7.7,11.4 -4.2,1.2 -8.2,-1.4 -11.3,-4 C 225.7,92.3 213.4,85.1 201.5,77.5 191.8,71.3 184,61.5 182,49.9 c -1.6,-6.8 -0.1,-13.8 1.3,-20.5 2.8,-10.1 6.3,-20 10.8,-29.4 l -1.6,0 z m 52.4,112.1 c 2.3,3.5 5.2,7.3 4.9,11.7 -1.8,3.9 -5.3,7.6 -9.8,8 -5.9,-0.7 -10.3,-5.4 -13.7,-9.9 6.7,-2.1 13.7,-4.4 18.6,-9.8 z m -72.95,6.175 c 16.05419,0.0392 31.65,6.65 44.05,16.725 16.1,13.3 28.3,32.4 30.6,53.4 0,1.8 0.7,4.2 -0.8,5.7 -3.6,0.4 -7.3,-0.5 -10.9,-0.8 -40.6,-4.2 -81.6,-4.2 -122.1,0.2 -4.5,0.3 -8.9,1.3 -13.4,1.1 -2.2,-0.2 -2.2,-2.9 -2.2,-4.6 -0.1,-13.3 5.5,-26 13.1,-36.7 13.9,-19.2 35.8,-33.8 60.1,-35 0.51875,-0.0125 1.03212,-0.0263 1.55,-0.025 z"
     id="path4"
     style="fill:#cd3349;stroke:#000000;stroke-width:0.09375" />
  <path
     d="m 255.3,94.3 c -0.1,-6.9 -0.8,-13.8 0.4,-20.6 0.4,6.8 1.1,13.8 -0.4,20.6 z"
     id="path6"
     style="fill:#242424;stroke:#242424;stroke-width:0.09375" />
  <path
     d="m 226.3,121.9 c 6.7,-2.1 13.7,-4.4 18.6,-9.8 2.3,3.5 5.2,7.3 4.9,11.7 -1.8,3.9 -5.3,7.6 -9.8,8 -5.9,-0.7 -10.3,-5.4 -13.7,-9.9 z"
     id="path8"
     style="fill:#ffffff;stroke:#ffffff;stroke-width:0.09375" />
  <path
     d="m 170.4,118.3 c 16.6,-0.4 32.8,6.3 45.6,16.7 16.1,13.3 28.3,32.4 30.6,53.4 0,1.8 0.7,4.2 -0.8,5.7 -3.6,0.4 -7.3,-0.5 -10.9,-0.8 -40.6,-4.2 -81.6,-4.2 -122.1,0.2 -4.5,0.3 -8.9,1.3 -13.4,1.1 -2.2,-0.2 -2.2,-2.9 -2.2,-4.6 -0.1,-13.3 5.5,-26 13.1,-36.7 13.9,-19.2 35.8,-33.8 60.1,-35 m -8,12.7 c -1.8,5.2 -3,10.7 -4.7,15.9 -3.8,-3.5 -5.7,-8.5 -9.6,-12 -1,6.1 -0.8,12.3 -2.1,18.4 -3.5,-3.3 -4.8,-8.4 -8.7,-11.3 -1,4.9 -1.5,9.9 -2.4,14.8 -2.4,-1.2 -4.3,-4.2 -7.1,-4.1 -1,4.5 -1.5,9.1 -2.9,13.6 -1.2,-1.1 -2.3,-2.2 -3.4,-3.4 -1.9,3.2 -2.9,6.8 -4.5,10 -1,-0.2 -2,-0.4 -3,-0.7 -1.1,3.5 -2.1,7.1 -3,10.6 1.6,1.4 3.2,2.7 4.8,3.9 0.9,-2.6 2,-5.3 3.2,-7.9 2.5,1.8 4.8,3.9 7.6,5.1 1.2,-3.3 2.4,-6.6 3.6,-9.9 3.8,2.1 6.7,5.5 10.7,7.3 1.2,-3.8 2.1,-7.6 3.2,-11.4 3.2,2.9 5.1,7 8.7,9.4 1.9,-3.4 2.9,-7.2 5,-10.6 2.1,3.3 3.7,7 6.2,10.1 2.6,-3.3 3.8,-7.4 6,-11 2.8,3.6 4.5,7.7 7,11.4 2,-3 3.4,-6.4 5.1,-9.5 2.8,3.1 4.5,7 7.7,9.6 1.7,-3 3.1,-6.1 4.6,-9.2 3.6,3.5 6,7.9 9.6,11.4 2.1,-2.6 4.1,-5.3 6.1,-7.9 2.7,3.6 3.8,8.1 6.7,11.6 2,-2.5 3.3,-5.6 6,-7.5 1,3.4 1.9,6.7 3.1,9.9 1.7,-2 3.4,-4.1 4.4,-6.6 0.2,-4.1 -1,-8.1 -1.6,-12.1 -2.1,0.5 -4.1,1.3 -6,2.3 -1.2,-2.9 -1.6,-6 -2.1,-9.1 -2,1.5 -4.2,3 -6.4,4.2 -0.7,-5.8 -0.6,-11.6 -1.3,-17.3 -3.1,3.1 -5.6,6.8 -8.6,10 -0.7,-5.7 -0.7,-11.4 -1.4,-17 -3.6,4.1 -6.4,8.8 -9.8,13 -1.7,-7 -1.1,-14.3 -3.1,-21.2 -3.6,4.7 -5.1,11.1 -9.4,15.2 -1.4,-6 -2.8,-12.2 -4.7,-18.1 -3.1,5.2 -4.4,11.3 -7.8,16.3 -2.1,-5.3 -2.7,-11.3 -5.7,-16.2 z"
     id="path10"
     style="fill:#ffffff;stroke:#ffffff;stroke-width:0.09375" />
  <path
     d="m 162.4,131 c 3,4.9 3.6,10.9 5.7,16.2 3.4,-5 4.7,-11.1 7.8,-16.3 1.9,5.9 3.3,12.1 4.7,18.1 4.3,-4.1 5.8,-10.5 9.4,-15.2 2,6.9 1.4,14.2 3.1,21.2 3.4,-4.2 6.2,-8.9 9.8,-13 0.7,5.6 0.7,11.3 1.4,17 3,-3.2 5.5,-6.9 8.6,-10 0.7,5.7 0.6,11.5 1.3,17.3 2.2,-1.2 4.4,-2.7 6.4,-4.2 0.5,3.1 0.9,6.2 2.1,9.1 1.9,-1 3.9,-1.8 6,-2.3 0.6,4 1.8,8 1.6,12.1 -1,2.5 -2.7,4.6 -4.4,6.6 -1.2,-3.2 -2.1,-6.5 -3.1,-9.9 -2.7,1.9 -4,5 -6,7.5 -2.9,-3.5 -4,-8 -6.7,-11.6 -2,2.6 -4,5.3 -6.1,7.9 -3.6,-3.5 -6,-7.9 -9.6,-11.4 -1.5,3.1 -2.9,6.2 -4.6,9.2 -3.2,-2.6 -4.9,-6.5 -7.7,-9.6 -1.7,3.1 -3.1,6.5 -5.1,9.5 -2.5,-3.7 -4.2,-7.8 -7,-11.4 -2.2,3.6 -3.4,7.7 -6,11 -2.5,-3.1 -4.1,-6.8 -6.2,-10.1 -2.1,3.4 -3.1,7.2 -5,10.6 -3.6,-2.4 -5.5,-6.5 -8.7,-9.4 -1.1,3.8 -2,7.6 -3.2,11.4 -4,-1.8 -6.9,-5.2 -10.7,-7.3 -1.2,3.3 -2.4,6.6 -3.6,9.9 -2.8,-1.2 -5.1,-3.3 -7.6,-5.1 -1.2,2.6 -2.3,5.3 -3.2,7.9 -1.6,-1.2 -3.2,-2.5 -4.8,-3.9 0.9,-3.5 1.9,-7.1 3,-10.6 1,0.3 2,0.5 3,0.7 1.6,-3.2 2.6,-6.8 4.5,-10 1.1,1.2 2.2,2.3 3.4,3.4 1.4,-4.5 1.9,-9.1 2.9,-13.6 2.8,-0.1 4.7,2.9 7.1,4.1 0.9,-4.9 1.4,-9.9 2.4,-14.8 3.9,2.9 5.2,8 8.7,11.3 1.3,-6.1 1.1,-12.3 2.1,-18.4 3.9,3.5 5.8,8.5 9.6,12 1.7,-5.2 2.9,-10.7 4.7,-15.9 z"
     id="path16"
     style="fill:#cd3349;stroke:#000000;stroke-width:0.09375" />
  <path
     d="m 316.3,165.3 c 0.5,0.5 0.5,0.5 0,0 z"
     id="path18"
     style="fill:#424242;stroke:#424242;stroke-width:0.09375" />
  <path
     d="M 126,138.875 116.125,152"
     transform="scale(0.8,0.8)"
     id="path3643"
     style="stroke-width:1px" />
</svg>
